<svg xmlns="http://www.w3.org/2000/svg" width="18.424" height="16.552" viewBox="0 0 18.424 16.552"><defs><style>.a{fill:rgb(211, 22, 73);}</style></defs><g transform="translate(0 -16.512)"><path class="a" d="M97.479,192.167c-.168.824-.276,1.222-.912,1.273a.34.34,0,0,0-.1.653,6.228,6.228,0,0,0,2.149.414h0a3.221,3.221,0,0,0,3.353-2.656l-2.186-2.2A2.617,2.617,0,0,0,97.479,192.167Z" transform="translate(-90.798 -163.322)"/><path class="a" d="M179.493,61.173a.449.449,0,0,0-.329-.13c-.194,0-.709,0-3.84,2.664-1.446,1.23-3.113,2.752-4.439,4.048l2.075,2.091c1.364-1.418,2.955-3.194,4.22-4.719.8-.963,1.413-1.757,1.826-2.361C179.553,61.965,179.792,61.474,179.493,61.173Z" transform="translate(-161.199 -42.007)"/><path class="a" d="M10.35,31.361a4.367,4.367,0,0,1-2.535.731,7.121,7.121,0,0,1-2.5-.483,1.247,1.247,0,0,1,.342-2.392c.049-.146.1-.411.132-.553a4.8,4.8,0,0,1,.7-1.878,3.336,3.336,0,0,1,2.2-1.33c.556-.552,1.191-1.159,1.853-1.775a1.151,1.151,0,0,1-.795-.62,1.138,1.138,0,0,1,.538-1.524,1.157,1.157,0,0,1,1.539.534,1.134,1.134,0,0,1,.1.346c.549-.492,1.094-.969,1.609-1.407L13.546,21a8.345,8.345,0,0,0-7.419-4.489h0a8.189,8.189,0,0,0-3.894,1.119A3.865,3.865,0,0,0,0,20.819a2.919,2.919,0,0,0,1.485,2.56c.539.4.965.716.966,1.408s-.426,1.008-.965,1.407A2.916,2.916,0,0,0,0,28.755a3.87,3.87,0,0,0,2.234,3.188,8.2,8.2,0,0,0,3.9,1.122h0a8.322,8.322,0,0,0,5.9-2.421,8.191,8.191,0,0,0,2.283-4.22c-.791.877-1.587,1.728-2.3,2.456A4.287,4.287,0,0,1,10.35,31.361ZM6.295,19.946a1.153,1.153,0,1,1,.868,1.367A1.152,1.152,0,0,1,6.295,19.946Zm-3.741,2.1a1.136,1.136,0,0,1,.182-1.606,1.161,1.161,0,0,1,1.62.181,1.138,1.138,0,0,1-.183,1.606A1.16,1.16,0,0,1,2.554,22.046Zm.606,7.54a1.136,1.136,0,0,1-.183-1.606A1.16,1.16,0,0,1,4.6,27.8a1.136,1.136,0,0,1,.183,1.606A1.159,1.159,0,0,1,3.16,29.586Z" transform="translate(0)"/></g></svg>