<svg xmlns="http://www.w3.org/2000/svg" width="8.704" height="14.96" viewBox="0 0 8.704 14.96"><defs><style>.a{fill:#fff;}</style></defs><g transform="translate(0)"><g transform="translate(0 0)"><g transform="translate(0)"><path class="a" d="M189.2,3.808a1.835,1.835,0,0,0,1.347-.557A1.835,1.835,0,0,0,191.1,1.9a1.835,1.835,0,0,0-.557-1.347,1.909,1.909,0,0,0-2.695,0A1.835,1.835,0,0,0,187.3,1.9a1.835,1.835,0,0,0,.557,1.347A1.836,1.836,0,0,0,189.2,3.808Z" transform="translate(-184.848 0)"/><path class="a" d="M113.3,137.518a1.574,1.574,0,0,0-1.156-.476H106.7a1.625,1.625,0,0,0-1.632,1.632v3.536a.816.816,0,1,0,1.632,0v-2.992h.544v7.752a.952.952,0,0,0,1.9,0v-3.944h.544v3.944a.952.952,0,0,0,1.9,0v-7.752h.544v2.992a.816.816,0,1,0,1.632,0v-3.536A1.574,1.574,0,0,0,113.3,137.518Z" transform="translate(-105.071 -132.962)"/></g></g></g></svg>