<?xml version="1.0" encoding="iso-8859-1"?>
<!-- Generator: Adobe Illustrator 18.0.0, SVG Export Plug-In . SVG Version: 6.00 Build 0)  -->
<!DOCTYPE svg PUBLIC "-//W3C//DTD SVG 1.1//EN" "http://www.w3.org/Graphics/SVG/1.1/DTD/svg11.dtd">
<svg fill="#fff" version="1.1" id="Capa_1" xmlns="http://www.w3.org/2000/svg" xmlns:xlink="http://www.w3.org/1999/xlink" x="0px" y="0px"
	 viewBox="0 0 61.132 61.132" style="enable-background:new 0 0 61.132 61.132;" xml:space="preserve">
<path d="M27.482,34.031v12.317h-6.92c-1.703,0-3.084,1.381-3.084,3.084s1.381,3.084,3.084,3.084h6.92v5.531
	c0,1.703,1.381,3.084,3.084,3.084s3.084-1.381,3.084-3.084v-5.531h6.92c1.703,0,3.084-1.381,3.084-3.084s-1.381-3.084-3.084-3.084
	h-6.92V34.031c7.993-1.458,14.072-8.467,14.072-16.874C47.723,7.697,40.026,0,30.566,0c-9.46,0-17.157,7.697-17.157,17.157
	C13.409,25.564,19.489,32.573,27.482,34.031z M30.566,6.169c6.059,0,10.988,4.929,10.988,10.988s-4.929,10.988-10.988,10.988
	s-10.988-4.929-10.988-10.988S24.507,6.169,30.566,6.169z"/>
<g>
</g>
<g>
</g>
<g>
</g>
<g>
</g>
<g>
</g>
<g>
</g>
<g>
</g>
<g>
</g>
<g>
</g>
<g>
</g>
<g>
</g>
<g>
</g>
<g>
</g>
<g>
</g>
<g>
</g>
</svg>
