<svg xmlns="http://www.w3.org/2000/svg" width="11.082" height="15.238" viewBox="0 0 11.082 15.238"><defs><style>.a{fill:#fff;}</style></defs><g transform="translate(0)"><g transform="translate(0)"><path class="a" d="M189.225,3.879a1.869,1.869,0,0,0,1.372-.567,1.869,1.869,0,0,0,.567-1.372A1.869,1.869,0,0,0,190.6.567a1.944,1.944,0,0,0-2.745,0,1.869,1.869,0,0,0-.567,1.372,1.869,1.869,0,0,0,.567,1.372A1.87,1.87,0,0,0,189.225,3.879Z" transform="translate(-183.684 0)"/><path class="a" d="M79.459,141.289l-2.216-3.325a1.824,1.824,0,0,0-1.524-.926H72.394a1.824,1.824,0,0,0-1.524.926l-2.216,3.325a.81.81,0,0,0-.139.459.828.828,0,0,0,.831.831.792.792,0,0,0,.693-.372L72,139.254h.39V140.4l-2.139,3.558a.545.545,0,0,0-.078.286.562.562,0,0,0,.554.554h1.662v2.355a.975.975,0,0,0,.97.97h1.385a.975.975,0,0,0,.97-.97V144.8h1.662a.561.561,0,0,0,.554-.554.546.546,0,0,0-.078-.286L75.718,140.4v-1.143h.39l1.965,2.952a.792.792,0,0,0,.693.372.828.828,0,0,0,.831-.831A.811.811,0,0,0,79.459,141.289Z" transform="translate(-68.515 -132.882)"/></g></g></svg>