<svg xmlns="http://www.w3.org/2000/svg" width="24.316" height="25.937" viewBox="0 0 24.316 25.937"><defs><style>.a{fill:#fff;}</style></defs><path class="a" d="M121.726,80.811a.81.81,0,0,0-.811-.811h-8.105a.81.81,0,0,0-.811.811v6.484a.811.811,0,0,0,.811.811h8.105a.81.81,0,0,0,.811-.811Zm-1.621,5.674h-6.484V81.621h6.484Z" transform="translate(-107.137 -75.947)"/><path class="a" d="M39.887,5.747,36.655,4.126a.809.809,0,1,0-.718,1.45l1.231.615a.818.818,0,0,0-.076.281,2.607,2.607,0,0,0,1.6,2.282V18.63a.811.811,0,1,1-1.621,0V12.146a4.3,4.3,0,0,0-3.242-3.971V3.23A3.2,3.2,0,0,0,30.628,0H20.9a3.269,3.269,0,0,0-3.281,3.23V21.371l-1.173.587a.81.81,0,0,0-.448.725v2.432a.855.855,0,0,0,.849.822H34.681a.789.789,0,0,0,.772-.822V22.683A.81.81,0,0,0,35,21.958l-1.173-.587V9.864a2.624,2.624,0,0,1,1.621,2.282V18.63a2.432,2.432,0,1,0,4.863,0V6.472A.793.793,0,0,0,39.887,5.747ZM33.832,24.316H17.621V23.184l1.173-.587a.81.81,0,0,0,.448-.725V3.23A1.646,1.646,0,0,1,20.9,1.621h9.726A1.58,1.58,0,0,1,32.211,3.23V21.872a.81.81,0,0,0,.448.725l1.173.586Z" transform="translate(-16)"/></svg>