<svg xmlns="http://www.w3.org/2000/svg" width="19.017" height="14.552" viewBox="0 0 19.017 14.552"><defs><style>.a{fill:#fff;}</style></defs><path class="a" d="M12.183,10.136h6.834v1.486H11.949c.086-.456.167-.955.234-1.486Zm.186-2.86q0,.376-.013.743h6.662V6.533H12.356Q12.368,6.9,12.369,7.276Zm-.441-4.457c.088.455.171.953.241,1.486h6.849V2.819Zm-2.117,11.2a22.247,22.247,0,0,0,1.072-6.748A22.249,22.249,0,0,0,9.811.528L9.624,0,9.064.034A15.153,15.153,0,0,0,4.639,1.1C1.6,2.371,0,4.507,0,7.276s1.6,4.9,4.639,6.177a15.158,15.158,0,0,0,4.425,1.064l.56.035ZM9.4,7.276a21.517,21.517,0,0,1-.815,5.7,13.762,13.762,0,0,1-3.4-.9c-2.453-1.039-3.7-2.652-3.7-4.794S2.73,3.52,5.183,2.481a13.757,13.757,0,0,1,3.4-.9,21.437,21.437,0,0,1,.815,5.7Zm0,0" transform="translate(0 0)"/></svg>