<svg xmlns="http://www.w3.org/2000/svg" width="26.143" height="25.786" viewBox="0 0 26.143 25.786"><defs><style>.a{fill:#d9b43a;}.b{fill:#bb9430;}.c{fill:#e2c35a;}.d{fill:#ad712c;}.e{fill:#c98a2e;}.f{fill:#a7a951;}.g{fill:#d1d274;}.h{fill:#9b7099;}.i{fill:#b492ac;}.j{fill:#ab5034;}.k{fill:#c95a3a;}.l{fill:#ebd37a;}</style></defs><g transform="translate(0 -3.499)"><path class="a" d="M84.816,189.766,71.454,203.038c2.522,2.53,5.782,3.374,7.281,1.885L92.1,191.651C90.6,193.14,87.338,192.3,84.816,189.766Z" transform="translate(-67.805 -176.756)"/><path class="b" d="M282.108,41.283c2.522,2.53,6.2,2.959,7.7,1.471s.669-4.747-1.853-7.277-5.782-3.374-7.281-1.885S279.585,38.753,282.108,41.283Z" transform="translate(-265.515 -27.858)"/><path class="c" d="M287.7,20.766l.05.883.885.054c1.217-1.208,4.122-.346,6.344,1.883s3.072,5.133,1.856,6.342l.05.883.885.054c1.785-1.773.973-5.38-1.85-8.212S289.48,18.993,287.7,20.766Z" transform="translate(-273.005 -15.502)"/><path class="d" d="M388.223,70.088l-3.981,3.954a1.024,1.024,0,0,1-1.443,0l-.221-.222a1.021,1.021,0,0,1,0-1.441l3.981-3.955a1.024,1.024,0,0,1,1.443,0l.221.222A1.021,1.021,0,0,1,388.223,70.088Z" transform="translate(-362.762 -61.328)"/><path class="e" d="M383.914,74.275a.791.791,0,1,0,.413,1.248l3.758-3.733a.791.791,0,1,0-.413-1.248Z" transform="translate(-363.983 -63.337)"/><path class="f" d="M384.43,47.268a1.2,1.2,0,0,1,1.244,1.249l-.168,1.245-.168,1.245c-.086.638-.885.742-1.438.187l-1.078-1.082-1.078-1.082c-.553-.555-.445-1.353.194-1.436l1.246-.162Z" transform="translate(-361.912 -41.528)"/><path class="g" d="M384.211,50.519l.168-1.245a1.1,1.1,0,0,0-.34-.884l-.856.111-1.246.162c-.639.083-.747.881-.194,1.436l1.078,1.082.992,1a.61.61,0,0,0,.229-.415Z" transform="translate(-361.912 -42.599)"/><path class="d" d="M322.755,12.961l-3.564,3.54a1.024,1.024,0,0,1-1.443,0l-.221-.222a1.021,1.021,0,0,1,0-1.441l3.564-3.54a1.024,1.024,0,0,1,1.443,0l.221.222A1.021,1.021,0,0,1,322.755,12.961Z" transform="translate(-301.033 -7.118)"/><path class="e" d="M318.864,16.733a1.177,1.177,0,0,0-.1,1.546,1.168,1.168,0,0,0,.518-.3l3.34-3.318a1.177,1.177,0,0,0,.1-1.546,1.167,1.167,0,0,0-.518.3Z" transform="translate(-302.255 -9.127)"/><path class="f" d="M305.632,49.5a1.026,1.026,0,0,1,1.06,1.064l-.144,1.06-.144,1.06c-.074.544-.754.632-1.225.16l-.918-.922L303.343,51c-.471-.473-.379-1.153.166-1.224l1.062-.138Z" transform="translate(-287.565 -43.65)"/><path class="g" d="M305.447,52.272l.144-1.06a.936.936,0,0,0-.289-.753l-.729.095-1.062.138c-.545.071-.637.751-.166,1.224l.918.922.845.849a.519.519,0,0,0,.2-.354Z" transform="translate(-287.567 -44.563)"/><path class="h" d="M407.726,99a1.766,1.766,0,1,0-.007,2.494A1.769,1.769,0,0,0,407.726,99Z" transform="translate(-384.042 -90.131)"/><path class="i" d="M405.22,101.55c.034.034.07.067.106.1a1.764,1.764,0,0,0,1.151-3c-.034-.034-.07-.067-.106-.1a1.764,1.764,0,0,0-1.151,3Z" transform="translate(-384.042 -90.194)"/><path class="j" d="M360.06,37.86c-.813,0-1.477,1.612-1.482,3.6s.649,3.608,1.462,3.609,1.477-1.612,1.482-3.6S360.873,37.862,360.06,37.86Z" transform="translate(-340.268 -32.607)"/><path class="k" d="M359.451,50.34a5.276,5.276,0,0,0,.893-3.3,5.269,5.269,0,0,0-.874-3.307,5.275,5.275,0,0,0-.893,3.3A5.269,5.269,0,0,0,359.451,50.34Z" transform="translate(-340.268 -38.176)"/><path class="d" d="M289.906,94.286l-3.564,3.54a1.024,1.024,0,0,1-1.443,0l-.221-.222a1.021,1.021,0,0,1,0-1.441l3.564-3.54a1.024,1.024,0,0,1,1.442,0l.221.222A1.021,1.021,0,0,1,289.906,94.286Z" transform="translate(-269.862 -84.29)"/><path class="e" d="M286.015,98.058a.791.791,0,1,0,.413,1.248l3.34-3.318a.791.791,0,1,0-.413-1.248Z" transform="translate(-271.083 -86.3)"/><path class="d" d="M241.026,77.906l-3.564,3.54a1.024,1.024,0,0,1-1.443,0l-.221-.222a1.021,1.021,0,0,1,0-1.441l3.564-3.54a1.024,1.024,0,0,1,1.443,0l.221.222A1.021,1.021,0,0,1,241.026,77.906Z" transform="translate(-223.478 -68.747)"/><path class="e" d="M237.135,81.678a.791.791,0,1,0,.413,1.248l3.34-3.318a.791.791,0,1,0-.413-1.248Z" transform="translate(-224.699 -70.756)"/><path class="d" d="M392.527,138.451l-3.564,3.54a1.024,1.024,0,0,1-1.443,0l-.221-.222a1.021,1.021,0,0,1,0-1.441l3.564-3.54a1.024,1.024,0,0,1,1.443,0l.221.222A1.021,1.021,0,0,1,392.527,138.451Z" transform="translate(-367.243 -126.2)"/><path class="e" d="M388.636,142.223a.791.791,0,1,0,.413,1.248l3.34-3.318a.791.791,0,1,0-.413-1.248Z" transform="translate(-368.464 -128.21)"/><path class="f" d="M371.389,153.009a1.026,1.026,0,0,1,1.06,1.064l-.144,1.06-.144,1.06c-.074.544-.754.632-1.225.16l-.918-.922-.918-.922c-.471-.473-.379-1.153.166-1.224l1.062-.138Z" transform="translate(-349.964 -141.871)"/><path class="g" d="M371.2,155.778l.144-1.06a.936.936,0,0,0-.289-.753l-.729.095-1.062.138c-.545.071-.637.751-.166,1.224l.918.922.845.849a.52.52,0,0,0,.2-.354Z" transform="translate(-349.966 -142.783)"/><path class="h" d="M332.161,153.789a1.786,1.786,0,1,0,.2,2.7A1.933,1.933,0,0,0,332.161,153.789Z" transform="translate(-312.191 -141.979)"/><path class="i" d="M329.656,156.286c.04.04.081.078.123.114a1.629,1.629,0,0,0,1.2-.458,1.924,1.924,0,0,0-.2-2.7c-.04-.04-.081-.078-.123-.114a1.629,1.629,0,0,0-1.2.458A1.924,1.924,0,0,0,329.656,156.286Z" transform="translate(-312.191 -141.987)"/><path class="c" d="M8.445,51.35c-1.785,1.773-.973,5.38,1.85,8.212a4.8,4.8,0,0,0,6.766.014l7.516-7.465a4.775,4.775,0,0,0,.019-6.753c-2.222-2.229-3.072-5.133-1.856-6.342l-.934-.937Z" transform="translate(-7.117 -32.815)"/><path class="l" d="M22.037,58.072a2.466,2.466,0,0,0,.186-3.3c-.033-.041-.063-.08-.089-.114a9.213,9.213,0,0,1-1.61-3.374c0-.007.01,0,.008-.008a3.574,3.574,0,0,1,.768-3.353L8.445,60.694c-1.606,1.6-1.11,4.674,1.061,7.338q.184.226.384.447l0,0a1.125,1.125,0,0,0,1.623.037l10.1-10.033Z" transform="translate(-7.117 -42.158)"/><path class="c" d="M368.844,212.575c-.134-.061-.269-.128-.4-.2a.662.662,0,1,0-.623,1.168c.156.083.314.161.471.233,2.1.961,4.031.859,5.173-.275l-.934-.937C371.807,213.282,370.395,213.286,368.844,212.575Z" transform="translate(-348.704 -198.138)"/><path d="M81.469,323.918a.442.442,0,1,0,.626,0A.44.44,0,0,0,81.469,323.918Z" transform="translate(-77.186 -303.936)"/><path d="M76.541,377.719a.442.442,0,1,0,.627,0A.44.44,0,0,0,76.541,377.719Z" transform="translate(-72.509 -354.99)"/><path d="M145.256,348.348a.442.442,0,1,0,.626,0A.44.44,0,0,0,145.256,348.348Z" transform="translate(-137.716 -327.118)"/><path d="M47.926,347.57a.442.442,0,1,0,.626,0A.44.44,0,0,0,47.926,347.57Z" transform="translate(-45.355 -326.38)"/><path d="M97.037,249.735a.442.442,0,1,0,.627,0A.44.44,0,0,0,97.037,249.735Z" transform="translate(-91.959 -233.54)"/><path d="M179.441,282.309a.442.442,0,1,0,0,.624A.444.444,0,0,0,179.441,282.309Z" transform="translate(-169.561 -264.452)"/><path d="M163.108,217.1a.442.442,0,1,0,0,.624A.444.444,0,0,0,163.108,217.1Z" transform="translate(-154.062 -202.576)"/><path d="M269.439,209.538a.442.442,0,1,0-.626,0A.44.44,0,0,0,269.439,209.538Z" transform="translate(-254.964 -194.803)"/><path d="M26.142,12.718a6.1,6.1,0,0,0-.193-1.369,1.546,1.546,0,0,0-.2-.652,8.809,8.809,0,0,0-.523-1.189l.436-.434a1.561,1.561,0,0,0,0-2.208,1.565,1.565,0,0,0-1.526-.4,1.624,1.624,0,0,0-.422-.712,1.489,1.489,0,0,0-1.22-.463l-.153.02A1.562,1.562,0,0,0,19.7,3.954l-.344.343a6.244,6.244,0,0,0-2.607-.383,3.7,3.7,0,0,0-2.323,1.031L1.055,18.27A3.786,3.786,0,0,0,0,21.026a9.052,9.052,0,0,0,2.931,6.006,5.17,5.17,0,0,0,3.661,1.509q.253,0,.506-.025c0,.012-.009.024-.013.036a.383.383,0,0,0,.256.477,5.608,5.608,0,0,0,1.614.255,3.164,3.164,0,0,0,2.295-.851L23.174,16.55a3.587,3.587,0,0,0,1.915-.972A3.812,3.812,0,0,0,26.142,12.718Zm-.954-1.257s0,0,0,0a.787.787,0,0,1-.232.561l-2.508,2.5a4.375,4.375,0,0,1-1.629-.292.38.38,0,0,0,.083-.122,2.426,2.426,0,0,0-.51-2.5l1.122-.149a.665.665,0,0,1,.6.414.422.422,0,0,1,.038.219l-.141,1.062a.383.383,0,0,0,.329.43.393.393,0,0,0,.051,0,.383.383,0,0,0,.379-.333l.141-1.062a1.121,1.121,0,0,0-.013-.362l.933-.929a.8.8,0,0,1,1.23.124C25.107,11.174,25.15,11.318,25.188,11.461Zm-7.407.767a7.967,7.967,0,0,1-2.253-3.869l.533-.531a.792.792,0,0,1,.092-.077.8.8,0,0,1,1.037.077.8.8,0,0,1,.077,1.031.786.786,0,0,1-.077.092.383.383,0,1,0,.541.543l.039-.04.011-.012.028-.032h0l0,0a.388.388,0,0,0,.042-.036l.711-.709.016-.014.018-.016a.8.8,0,0,1,1.095.03.795.795,0,0,1,0,1.123l-.948.944q-.112-.014-.225-.016l-.025,0h-.133l-.035,0h0l-.042,0-.051,0h-.012l-.036,0h0l-.1.015h-.007l-.033.006a.383.383,0,1,0,.143.753l.027,0h0l.064-.01h0l.03,0,.059,0h.114a1.613,1.613,0,0,1,.313.036,1.814,1.814,0,0,1,.475.176,1.991,1.991,0,0,1,.463.344,1.68,1.68,0,0,1,.459,1.787.382.382,0,0,0-.029.14q-.1-.051-.209-.105A1.05,1.05,0,0,0,18.9,13.9,5.141,5.141,0,0,0,17.781,12.228ZM15.875,6.455A.381.381,0,0,0,16,6.46l2.129-.282a.378.378,0,0,1,.142.011.552.552,0,0,1,.093.034,6.553,6.553,0,0,0-.347,1.466,1.533,1.533,0,0,0-.29-.4,1.577,1.577,0,0,0-2.03-.152,1.555,1.555,0,0,0-.18.152l-.032.032A1.553,1.553,0,0,1,15.875,6.455Zm4.728.222a5.814,5.814,0,0,1,.208.891A7.965,7.965,0,0,1,20.9,8.743V8.8c0,.274-.013.547-.04.812a6.455,6.455,0,0,1-.225,1.19l-1.023.136.619-.617a1.561,1.561,0,0,0,0-2.208A1.564,1.564,0,0,0,18.792,7.7a5.18,5.18,0,0,1,.394-1.448c.194-.417.434-.675.626-.676h0C20.028,5.576,20.356,5.916,20.6,6.677Zm4.522.732a.795.795,0,0,1,0,1.123l-.674.672a2.144,2.144,0,0,0-.456-.671l-.022-.021L24.134,7.3A.8.8,0,0,1,25.125,7.409ZM22.6,6.054a.833.833,0,0,1,.821.818l-.023.171h0l-.134,1.01a2.156,2.156,0,0,0-.575-.139.383.383,0,0,0-.076.762,1.384,1.384,0,0,1,.719.288,1.4,1.4,0,0,1,.124.11,1.376,1.376,0,0,1,.4.9c0,.009,0,.019,0,.028a1.538,1.538,0,0,0-.571.36l-.771.768A1.347,1.347,0,0,0,21.46,10.7a7.612,7.612,0,0,0,.166-1.008c.029-.29.043-.588.043-.887,0-.014,0-.029,0-.043V8.738a8.726,8.726,0,0,0-.1-1.289,6.889,6.889,0,0,0-.167-.781l.508-.506.018-.019ZM21.367,4.5a.8.8,0,0,1,0,1.123l-.259.258a1.62,1.62,0,0,0-1.19-1.061l.32-.319A.8.8,0,0,1,21.367,4.5ZM3.472,26.489A8.288,8.288,0,0,1,.766,21.026a3.038,3.038,0,0,1,.83-2.214L14.965,5.488a3.74,3.74,0,0,1,3.78-.584l-.509.508a1.092,1.092,0,0,0-.2.007l-1.489.2a.383.383,0,0,0-.609-.2l-.541.434a.385.385,0,0,0-.03.027A2.487,2.487,0,0,0,14.7,7.694a7.855,7.855,0,0,0,2.544,5.077,4.394,4.394,0,0,1,0,6.221l-7.52,7.495a4.432,4.432,0,0,1-6.246,0Zm7.237,1.4a2.945,2.945,0,0,1-2.834.49,5.159,5.159,0,0,0,2.383-1.351l7.52-7.495A5.126,5.126,0,0,0,19.3,15.879a5.2,5.2,0,0,0-.129-1.157.383.383,0,0,0,.053-.075.283.283,0,0,1,.381-.117c.141.074.283.144.424.208a5.659,5.659,0,0,0,2.3.557q.142,0,.278-.01h.014a.386.386,0,0,0,.086-.01,2.356,2.356,0,0,0,1.449-.634.382.382,0,0,0-.11-.619l1.336-1.331c0,.014,0,.028,0,.042a3.067,3.067,0,0,1-.829,2.3,3.359,3.359,0,0,1-2.969.765.383.383,0,0,0-.117.757c.19.03.377.048.56.059Z" transform="translate(0 0)"/></g></svg>