<svg xmlns="http://www.w3.org/2000/svg" width="21.547" height="20.683" viewBox="0 0 21.547 20.683"><defs><style>.a{fill:#63a85c;}</style></defs><g transform="translate(0 -17.84)"><g transform="translate(0 17.84)"><path class="a" d="M160.676,21.778l8.59-2.345-.455-.919a1.21,1.21,0,0,0-1.621-.547l-7.69,3.811Z" transform="translate(-155.641 -17.84)"/><path class="a" d="M330.5,86.46a1.21,1.21,0,0,0-.319.044l-2.018.552L322,88.737h10.044l-.377-1.384A1.208,1.208,0,0,0,330.5,86.46Z" transform="translate(-314.209 -84.8)"/><path class="a" d="M19.1,215.56H1.212a1.211,1.211,0,0,0-1.169.893A1.252,1.252,0,0,0,0,216.77v13.48a1.21,1.21,0,0,0,1.21,1.21H19.093a1.21,1.21,0,0,0,1.21-1.21v-3.375H13.124a2.058,2.058,0,0,1-2.057-2.057v-2.691a2.054,2.054,0,0,1,2.054-2.054H20.3v-3.3A1.207,1.207,0,0,0,19.1,215.56Z" transform="translate(0 -210.776)"/><path class="a" d="M501.638,437.078a1.21,1.21,0,0,0-.423-.252,1.235,1.235,0,0,0-.392-.065H493.61a1.21,1.21,0,0,0-1.21,1.21v2.693a1.21,1.21,0,0,0,1.21,1.21h7.213a1.233,1.233,0,0,0,.392-.065,1.173,1.173,0,0,0,.423-.252,1.205,1.205,0,0,0,.394-.893v-2.693A1.205,1.205,0,0,0,501.638,437.078Zm-5.5,2.48a.605.605,0,0,1-.6.6h-.4a.605.605,0,0,1-.6-.6v-.4a.593.593,0,0,1,.232-.474.611.611,0,0,1,.373-.131h.4a.605.605,0,0,1,.6.6v.4Z" transform="translate(-480.486 -426.625)"/></g></g></svg>