<svg xmlns="http://www.w3.org/2000/svg" width="13.324" height="16.721" viewBox="0 0 13.324 16.721"><defs><style>.a{fill:#fff;}</style></defs><g transform="translate(0)"><path class="a" d="M63.365,6.14H62.188V3.454a3.528,3.528,0,0,0-7.054,0V6.14H53.959A1.962,1.962,0,0,0,52,8.1v6.662a1.962,1.962,0,0,0,1.959,1.959h9.406a1.962,1.962,0,0,0,1.959-1.959V8.1A1.962,1.962,0,0,0,63.365,6.14ZM56.44,3.454a2.222,2.222,0,0,1,4.441,0V6.14H56.44Zm7.578,11.307a.654.654,0,0,1-.653.653H53.959a.654.654,0,0,1-.653-.653V8.1a.654.654,0,0,1,.653-.653h9.406a.654.654,0,0,1,.653.653Z" transform="translate(-52)"/></g><g transform="translate(5.454 9.34)"><path class="a" d="M220.208,286a1.208,1.208,0,0,0-.654,2.224v1.434a.653.653,0,1,0,1.306,0v-1.432a1.208,1.208,0,0,0-.652-2.226Z" transform="translate(-219 -286)"/></g></svg>