<svg xmlns="http://www.w3.org/2000/svg" width="33.282" height="38.313" viewBox="0 0 33.282 38.313"><defs><style>.b{fill:#fff;}.c{fill:none;}.d{fill:#dd384c;}</style></defs><g class="a" transform="translate(-530.865 -321.115)"><path class="b" d="M0,0H8.348V2.495H0Z" transform="translate(543.318 356.934)"/><path class="b" d="M0,0H2.527V2.527H0Z" transform="translate(546.229 354.407)"/><path class="b" d="M551.27,410.108c-.032.032,0,.032,0,.064.448.352,4.862,3.742,10.107,3.71,5.214-.032,9.659-3.358,10.107-3.71.032,0,.032-.032,0-.064l-1.6-1.759c0-.032-.032-.032-.064,0a10.793,10.793,0,0,1-8.444,3.167c-5.373-.16-8-2.879-8.284-3.167h-.064Z" transform="translate(-13.869 -59.316)"/><rect class="c" width="8.636" height="7.293" transform="matrix(0.756, 0.655, -0.655, 0.756, 539.439, 323.94)"/><g transform="translate(537.977 322.134)"><path class="b" d="M577.64,333.672a9.364,9.364,0,0,0-9.372-9.372h-.288a9.289,9.289,0,0,0-6.781,2.911l1.791,1.567a7.025,7.025,0,0,1,5.054-2.111h.1a7.139,7.139,0,0,1,7.133,7.133v5.661l2.335,2.015v-7.8Z" transform="translate(-558.609 -324.3)"/><path class="b" d="M562.664,370.609h-.1a7.139,7.139,0,0,1-7.133-7.133v-5.661L553.1,355.8v7.772a9.364,9.364,0,0,0,9.372,9.372h.288a9.289,9.289,0,0,0,6.781-2.911l-1.791-1.567A7.054,7.054,0,0,1,562.664,370.609Z" transform="translate(-553.1 -345.725)"/></g><rect class="d" width="2.655" height="41.74" transform="matrix(0.655, -0.756, 0.756, 0.655, 530.865, 323.122)"/></g></svg>