<svg xmlns="http://www.w3.org/2000/svg" width="35.998" height="35.998" viewBox="0 0 35.998 35.998"><defs><style>.a{fill:#5ecdd9;}.b{fill:#38919b;}.c{fill:#fff;}.d{fill:#7f184c;}</style></defs><ellipse class="a" cx="17.296" cy="17.295" rx="17.296" ry="17.295" transform="translate(0.703 0.704)"/><path class="b" d="M17.87,66.994A17.295,17.295,0,0,0,29.439,36.843,17.3,17.3,0,1,1,10.007,65.107,17.221,17.221,0,0,0,17.87,66.994Z" transform="translate(-3.577 -34.253)"/><g transform="translate(6.998 10.534)"><ellipse class="c" cx="2.111" cy="2.111" rx="2.111" ry="2.111" transform="translate(11.883)"/><ellipse class="c" cx="2.111" cy="2.111" rx="2.111" ry="2.111" transform="translate(0)"/></g><g transform="translate(2.82 16.617)"><path class="b" d="M119.534,240.771a2.326,2.326,0,0,1,2.326,2.326h-4.651A2.326,2.326,0,0,1,119.534,240.771Z" transform="translate(-96.922 -240.459)"/><path class="b" d="M408.061,236.34a2.326,2.326,0,0,1,2.326,2.326h-4.651A2.325,2.325,0,0,1,408.061,236.34Z" transform="translate(-405.735 -236.34)"/></g><path class="d" d="M241.465,341.337a5.148,5.148,0,0,0,4.493-2.642.7.7,0,1,0-1.229-.685,3.74,3.74,0,0,1-3.264,1.92,3.906,3.906,0,0,1-3.3-1.939.7.7,0,0,0-1.207.724A5.319,5.319,0,0,0,241.465,341.337Z" transform="translate(-226.703 -313.909)"/><path d="M2.891,8.212a18.033,18.033,0,0,1,7.49-6.524.7.7,0,1,1,.6,1.275A16.6,16.6,0,1,0,18,1.407.7.7,0,0,1,18,0,17.994,17.994,0,1,1,2.891,8.212Z"/><path d="M172.878,142.641a2.814,2.814,0,1,1,2.814,2.814A2.818,2.818,0,0,1,172.878,142.641Zm2.814,1.407a1.407,1.407,0,1,0-1.407-1.407A1.409,1.409,0,0,0,175.693,144.049Z" transform="translate(-154.664 -129.996)"/><path d="M344.714,145.456a2.814,2.814,0,1,1,2.814-2.814A2.818,2.818,0,0,1,344.714,145.456Zm0-4.222a1.407,1.407,0,1,0,1.407,1.407A1.409,1.409,0,0,0,344.714,141.234Z" transform="translate(-335.569 -129.996)"/><path d="M244.73,338.013a.7.7,0,1,1,1.229.685,5.148,5.148,0,0,1-4.493,2.642,5.32,5.32,0,0,1-4.508-2.623.7.7,0,1,1,1.207-.724,3.906,3.906,0,0,0,3.3,1.939A3.74,3.74,0,0,0,244.73,338.013Z" transform="translate(-226.703 -313.912)"/><ellipse cx="0.704" cy="0.704" rx="0.704" ry="0.704" transform="translate(12.514 0.772)"/></svg>