<svg xmlns="http://www.w3.org/2000/svg" width="27.5" height="21.861" viewBox="0 0 27.5 21.861"><defs><style>.a{fill:#fff;}</style></defs><g transform="translate(0 0)"><g transform="translate(0 0)"><path class="a" d="M208.872,123.813a1.074,1.074,0,0,0-1.365-.128c-1.607,1.1-9.67,6.6-10.536,7.471a3.223,3.223,0,0,0,4.558,4.558c.866-.866,6.376-8.929,7.471-10.536A1.075,1.075,0,0,0,208.872,123.813Zm-8.862,10.382a1.074,1.074,0,0,1-1.519-1.519c.337-.333,2.626-1.965,5.442-3.923C201.974,131.569,200.342,133.858,200.009,134.194Z" transform="translate(-185.499 -119.685)"/><path class="a" d="M4.954,71.246l-1.326.647A11.548,11.548,0,0,1,2.9,62.13l1.52.729a1.074,1.074,0,1,0,.929-1.937l-1.5-.72A11.617,11.617,0,0,1,12.676,54.7v1.616a1.074,1.074,0,0,0,2.148,0V54.7a11.469,11.469,0,0,1,3.694.973,1.074,1.074,0,1,0,.884-1.958A13.739,13.739,0,0,0,2.33,73.882a1.074,1.074,0,0,0,1.364.368l2.2-1.074a1.074,1.074,0,1,0-.942-1.931Z" transform="translate(0 -52.499)"/><path class="a" d="M395.336,192.126a1.074,1.074,0,1,0-1.958.884,11.564,11.564,0,0,1-.462,10.419l-1.384-.659a1.074,1.074,0,0,0-.924,1.94l2.256,1.074a1.074,1.074,0,0,0,1.355-.373,13.718,13.718,0,0,0,1.118-13.285Z" transform="translate(-369.047 -184.028)"/></g></g></svg>