<svg width="23.5" height="15.000000000000002" xmlns="http://www.w3.org/2000/svg">
 <defs>
  <style>.a,.b{fill:#fff;}.b{font-size:7px;font-family:Ubuntu;}</style>
 </defs>
 <g>
  <title>background</title>
  <rect fill="none" id="canvas_background" height="17" width="25.5" y="-1" x="-1"/>
 </g>
 <g>
  <title>Layer 1</title>
  <g id="svg_1">
   <g id="svg_2">
    <path id="svg_3" d="m20.292107,4.788443l0.614,-0.614a0.756,0.756 0 0 1 1.069,0l0.96,-0.96a2.114,2.114 0 0 0 -2.989,0l-1.017,1.017l-1.834,-2.2l-7.906,0l-3.621,3.169l-2.416,0a3.169,3.169 0 0 0 0,6.337a2.716,2.716 0 0 0 5.26,0l6.645,0a2.716,2.716 0 0 0 5.271,-0.047a3.395,3.395 0 0 0 -0.031,-6.7l-0.005,-0.002zm-14.515,7.428a1.358,1.358 0 1 1 1.358,-1.358a1.36,1.36 0 0 1 -1.358,1.358zm11.905,0a1.358,1.358 0 1 1 1.358,-1.358a1.36,1.36 0 0 1 -1.357,1.358l-0.001,0zm2.61,-2.107a2.716,2.716 0 0 0 -5.24,0.07l-6.645,0a2.716,2.716 0 0 0 -5.26,0a1.811,1.811 0 0 1 0,-3.621l2.931,0l3.621,-3.169l6.76,0l2.263,2.716l1.042,0a2.037,2.037 0 0 1 0.528,4l0,0.004z" class="a"/>
   </g>
  </g>
 </g>
</svg>