<svg width="33.282" height="38.313" xmlns="http://www.w3.org/2000/svg">
 <style type="text/css">.st0{fill:#FFFFFF;}
	.st1{display:none;}</style>

 <g>
  <title>background</title>
  <rect fill="none" id="canvas_background" height="40.313" width="35.282" y="-1" x="-1"/>
 </g>
 <g>
  <title>Layer 1</title>
  <g stroke="null" id="Layer_1">
   <path stroke="null" id="svg_1" d="m16.779694,1.277338l-0.291485,0c-5.24673,0 -9.489455,4.171311 -9.489455,9.329727l0,8.469991c0,5.158415 4.242726,9.329727 9.489455,9.329727l0.291485,0c5.24673,0 9.489455,-4.171311 9.489455,-9.329727l0,-8.469991c0,-5.158415 -4.242726,-9.329727 -9.489455,-9.329727zm7.125188,17.672349c0,3.916575 -3.238722,7.100782 -7.22235,7.100782l-0.097162,0c-3.983628,0 -7.22235,-3.184207 -7.22235,-7.100782l0,-8.247096c0,-3.916575 3.238722,-7.100782 7.22235,-7.100782l0.097162,0c3.983628,0 7.22235,3.184207 7.22235,7.100782l0,8.247096z" class="st0"/>
   <rect stroke="null" id="svg_2" height="2.483681" width="8.453064" class="st0" y="35.825984" x="12.439806"/>
   <rect stroke="null" id="svg_3" height="2.515524" width="2.55859" class="st0" y="33.310461" x="15.387043"/>
   <path stroke="null" id="svg_4" d="m6.448171,29.712307c-0.032387,0.031842 0,0.031842 0,0.063684c0.453421,0.350263 4.922857,3.725522 10.234361,3.69368c5.279117,-0.031842 9.78094,-3.343417 10.234361,-3.69368c0.032387,0 0.032387,-0.031842 0,-0.063684l-1.619361,-1.751314c0,-0.031842 -0.032387,-0.031842 -0.064774,0c-0.291485,0.350263 -3.109173,3.311575 -8.550226,3.152365c-5.441053,-0.15921 -8.096805,-2.865786 -8.38829,-3.152365c0,0 -0.032387,0 -0.064774,0l-1.781297,1.751314z" class="st0"/>
  </g>
  <g class="st1" id="Layer_2"/>
 </g>
</svg>